<svg enable-background="new 0 0 219.5 60" viewBox="0 0 219.5 60" xmlns="http://www.w3.org/2000/svg"><path d="m0 0h219.5v60h-219.5z" fill="#ed1d24"/><g fill="#fff"><path d="m61.6 10v40h-13.9l.7-17.4-7.6 17.4h-9.3l-2.6-17.7-4.5 17.7h-14.3l11.7-40h15.1l2.4 16.2 6.8-16.2z"/><path d="m139.8 22.7-6.3-.3-3.2 27.6h-15.2l3.5-27.5-5.8.2-9.7-12.7h38z"/><path d="m159.1 10-2.8 24.8c-.1 1.5.6 3 1.9 3.6 1.4.5 3.1.3 4.2-.7.9-.8 1.3-1.9 1.5-3.1l3.4-24.7h14.5l-3.1 27.4c-.7 3.9-2.5 7.6-6 10.1-5 3.6-11.7 4.2-18.2 3.3-5.1-.9-11-4.3-12.7-9.5-.7-1.9-.6-4.2-.6-6.2l3-25z"/><path d="m197.6 37.3h11.9l-3.5 12.7h-25.4l5.3-40h15.1z"/><path d="m89 22.4c-3.2-.4-6.3 1.1-7.9 3.9-1.4 2.4-1.7 5.7-.3 8.2 1 2.1 3.2 3.5 5.4 3.7 3 .3 5.6-1.2 7.1-3.7 1.6-2.3 1.7-6.1.4-8.6-.7-1.8-2.7-3.1-4.7-3.5m9.2-10.9 1.5 1.2 8.9 11.4c1 1.9 1 4.4.9 6.7-.1 7.7-5.1 14.8-12.1 18-8.5 4-19.9 2.1-26.6-4.5-5.9-5.6-7.1-15.1-4-22.4 3.6-8.1 12.1-13.2 20.8-12.8 3.8.1 7.4.8 10.6 2.4"/></g></svg>